#N canvas 97 58 1096 674 10;
#X obj 217 725 dac~;
#N canvas 435 61 833 588 pan 0;
#X obj 225 193 sin;
#X obj 280 193 cos;
#X obj 210 239 *~;
#X obj 265 239 *~;
#X obj 144 222 inlet~;
#X obj 210 275 outlet~;
#X obj 265 275 outlet~;
#X obj 292 18 loadbang;
#X obj 155 43 r x-axis;
#X text 439 45 0 - 1.572;
#X obj 175 94 + 1;
#X floatatom 292 75 5 0 0 0 - - -;
#X floatatom 326 226 5 0 0 0 - - -;
#X floatatom 376 224 10 0 0 0 - - -;
#X text 438 68 ((+ 1) / 2 *) 1.572;
#X obj 175 116 / 2;
#X msg 292 42 1.5708;
#X obj 176 136 * 1.5708;
#X connect 0 0 2 1;
#X connect 0 0 12 0;
#X connect 1 0 3 1;
#X connect 1 0 13 0;
#X connect 2 0 5 0;
#X connect 3 0 6 0;
#X connect 4 0 2 0;
#X connect 4 0 3 0;
#X connect 7 0 16 0;
#X connect 8 0 10 0;
#X connect 10 0 15 0;
#X connect 11 0 0 0;
#X connect 11 0 1 0;
#X connect 15 0 17 0;
#X connect 16 0 11 0;
#X connect 17 0 0 0;
#X connect 17 0 1 0;
#X restore 217 608 pd pan;
#X obj 217 647 hip~ 5;
#X obj 217 670 clip~ -1 1;
#X obj 217 692 lop~ 8000;
#X obj 289 646 hip~ 5;
#X obj 289 669 clip~ -1 1;
#X obj 289 691 lop~ 8000;
#X obj 7 6 cnv 15 800 200 empty empty empty 20 12 0 14 -233017 -66577
0;
#X text 96 53 static int;
#X text 93 27 static float (0 - 1);
#X text 422 32 dynamic floats (0 - 1);
#X obj 26 27 r \$0-size;
#X obj 26 54 r \$0-color;
#X obj 327 32 r \$0-proximity;
#X obj 327 54 r \$0-joy_x;
#X obj 327 76 r \$0-joy_y;
#X text 696 57 static int;
#X text 693 31 static float (0 - 1);
#X text 721 87 dynamic floats (0 - 1);
#X obj 626 31 s \$0-size;
#X obj 626 58 s \$0-color;
#X obj 626 87 s \$0-proximity;
#X obj 626 109 s \$0-joy_x;
#X obj 626 131 s \$0-joy_y;
#X floatatom 586 28 5 0 0 0 - - -;
#X floatatom 586 56 5 0 0 0 - - -;
#X floatatom 588 85 5 0 0 0 - - -;
#X floatatom 588 110 5 0 0 0 - - -;
#X floatatom 588 133 5 0 0 0 - - -;
#X floatatom 576 174 5 0 0 0 - - -;
#X obj 628 174 s y-axis;
#N canvas 175 160 763 338 color 0;
#X obj 333 13 inlet;
#X obj 252 14 inlet~;
#X obj 252 300 outlet~;
#X text 338 41 ----blue----;
#X obj 333 62 sel 0 1 2 3 4 5 6 7 8 9 10 11 12 13 14 15 16;
#X text 382 31 ----green----;
#X text 436 41 ----yellow----;
#X text 496 31 ----or----;
#X text 534 41 ----red----;
#X msg 332 107 8000;
#X msg 372 107 6000;
#X msg 572 107 200;
#X msg 602 107 160;
#X msg 481 107 500;
#X obj 252 230 bp~ 10000 1;
#X obj 330 270 *~ 0;
#X msg 546 212 1;
#X msg 575 212 0;
#X obj 330 230 lop~ 600;
#X obj 188 270 *~ 0;
#X msg 106 212 1;
#X obj 188 230 hip~ 4000;
#X connect 0 0 4 0;
#X connect 1 0 14 0;
#X connect 1 0 18 0;
#X connect 1 0 21 0;
#X connect 4 0 9 0;
#X connect 4 0 17 0;
#X connect 4 1 9 0;
#X connect 4 1 17 0;
#X connect 4 2 10 0;
#X connect 4 2 17 0;
#X connect 4 3 10 0;
#X connect 4 3 17 0;
#X connect 4 4 13 0;
#X connect 4 4 17 0;
#X connect 4 5 13 0;
#X connect 4 5 17 0;
#X connect 4 6 13 0;
#X connect 4 6 16 0;
#X connect 4 7 10 0;
#X connect 4 7 16 0;
#X connect 4 8 9 0;
#X connect 4 8 16 0;
#X connect 4 8 20 0;
#X connect 4 9 9 0;
#X connect 4 9 17 0;
#X connect 4 9 20 0;
#X connect 4 10 10 0;
#X connect 4 10 17 0;
#X connect 4 11 13 0;
#X connect 4 11 17 0;
#X connect 4 11 20 0;
#X connect 4 12 13 0;
#X connect 4 12 17 0;
#X connect 4 13 11 0;
#X connect 4 13 16 0;
#X connect 4 14 11 0;
#X connect 4 14 16 0;
#X connect 4 15 13 0;
#X connect 4 15 16 0;
#X connect 4 16 12 0;
#X connect 4 16 16 0;
#X connect 4 17 12 0;
#X connect 4 17 16 0;
#X connect 4 17 20 0;
#X connect 9 0 14 1;
#X connect 10 0 14 1;
#X connect 11 0 14 1;
#X connect 11 0 18 1;
#X connect 12 0 14 1;
#X connect 12 0 18 1;
#X connect 13 0 14 1;
#X connect 13 0 18 1;
#X connect 14 0 2 0;
#X connect 15 0 2 0;
#X connect 16 0 15 1;
#X connect 17 0 15 1;
#X connect 18 0 15 0;
#X connect 19 0 2 0;
#X connect 20 0 19 1;
#X connect 21 0 19 0;
#X restore 394 509 pd color;
#X obj 217 393 lop~ 800;
#X obj 217 423 lop~ 800;
#N canvas 394 79 784 693 delay 0;
#X obj 269 64 vd~ delayleft 1000;
#X obj 269 213 lop~ 4000;
#X obj 59 -31 inlet~;
#X obj 269 358 outlet~;
#X obj 269 -38 pack 0 50;
#X obj 269 -17 line~;
#X obj -27 192 *~ 0.3;
#X obj 33 192 *~ 0.3;
#X obj 269 296 *~ 0.5;
#X floatatom 272 -70 5 0 0 0 - - -;
#X obj 272 -116 loadbang;
#X msg 271 -93 400;
#X obj 59 254 delwrite~ delayleft 4000;
#X obj 405 -79 inlet;
#X obj 488 -39 * 400;
#X connect 0 0 1 0;
#X connect 1 0 6 0;
#X connect 1 0 8 0;
#X connect 2 0 12 0;
#X connect 4 0 5 0;
#X connect 5 0 0 0;
#X connect 6 0 12 0;
#X connect 8 0 3 0;
#X connect 9 0 4 0;
#X connect 10 0 11 0;
#X connect 11 0 9 0;
#X connect 13 0 14 0;
#X connect 14 0 4 0;
#X restore 263 567 pd delay;
#X obj 263 589 hip~ 3000;
#X obj 307 256 noise~;
#X obj 463 261 osc~ 1;
#X obj 419 339 *~;
#X obj 513 261 osc~ 0.8;
#X connect 1 0 2 0;
#X connect 1 1 5 0;
#X connect 2 0 3 0;
#X connect 3 0 4 0;
#X connect 4 0 0 0;
#X connect 5 0 6 0;
#X connect 6 0 7 0;
#X connect 7 0 0 1;
#X connect 12 0 35 1;
#X connect 13 0 32 1;
#X connect 25 0 20 0;
#X connect 26 0 21 0;
#X connect 27 0 22 0;
#X connect 28 0 23 0;
#X connect 29 0 24 0;
#X connect 30 0 31 0;
#X connect 32 0 35 0;
#X connect 33 0 34 0;
#X connect 34 0 32 0;
#X connect 35 0 36 0;
#X connect 36 0 1 0;
#X connect 37 0 39 0;
#X connect 38 0 39 1;
#X connect 39 0 33 0;
#X connect 40 0 39 1;
