#N canvas 416 202 832 516 10;
#X obj 138 282 p_output;
#X obj 302 186 r \$0-proximity;
#X obj 505 35 r \$0-colour;
#X obj 441 35 r \$0-scale;
#X obj 93 237 r \$0-pan;
#X obj 47 237 r \$0-on;
#X obj 205 216 volume;
#X obj 186 21 loadbang;
#X obj 152 135 p_fm 1 2 3 4;
#X msg 246 84 1;
#X floatatom 338 301 5 0 0 0 - - -, f 5;
#X obj 373 383 s \$0-proximity;
#X floatatom 405 324 5 0 0 0 - - -, f 5;
#X floatatom 494 271 5 0 0 0 - - -, f 5;
#X floatatom 600 282 5 0 0 0 - - -, f 5;
#X obj 462 330 s \$0-scale;
#X obj 568 341 s \$0-colour;
#X msg 126 84 5;
#X msg 306 84 12;
#X msg 66 84 4;
#X msg 186 84 70;
#X connect 1 0 6 1;
#X connect 1 0 8 3;
#X connect 4 0 0 2;
#X connect 5 0 0 0;
#X connect 6 0 0 1;
#X connect 7 0 19 0;
#X connect 7 0 17 0;
#X connect 7 0 20 0;
#X connect 7 0 9 0;
#X connect 7 0 18 0;
#X connect 8 0 6 0;
#X connect 12 0 11 0;
#X connect 13 0 15 0;
#X connect 14 0 16 0;
#X connect 17 0 8 1;
#X connect 18 0 8 4;
#X connect 19 0 8 0;
#X connect 20 0 8 2;
