#N canvas 51 23 1165 751 10;
#X obj 225 639 p_output;
#X obj 277 117 p_input;
#X obj 227 204 noise~;
#X obj 227 226 lop~ 800;
#X obj 228 310 bng 15 250 50 0 empty empty empty 17 7 0 10 -262144
-1 -1;
#N canvas 160 23 1239 699 kick 0;
#X obj 579 242 line~;
#X obj 493 366 *~;
#X obj 579 -75 bng 80 250 50 0 empty empty empty 0 -6 0 8 -128992 -1
-1;
#X obj 582 8 s \$0-trigger;
#X obj 456 244 osc~;
#X obj 332 182 line~;
#X floatatom 594 163 5 0 0 0 - - -;
#X msg 579 222 1 \, 0 \$1;
#X obj 579 182 f;
#X obj 579 202 pack f;
#X obj 594 77 vsl 20 80 1 3000 0 1 empty empty empty 0 -9 0 10 -262144
-1 -1 4 1;
#X obj 332 115 f;
#X obj 347 78 nbx 4 14 0.1 1000 1 1 empty empty pitch 0 -8 0 10 -262144
-1 -1 205.353 256;
#X obj 394 78 nbx 4 14 1 10000 1 1 empty empty pitch2 0 -8 0 10 -262144
-1 -1 170.89 256;
#X obj 579 -95 inlet;
#X obj 280 -56 inlet;
#X obj 326 -56 inlet;
#X text 279 -76 pitch;
#X obj 332 139 pack f f f;
#X floatatom 280 -36 5 0 0 0 - - -;
#X floatatom 326 -35 5 0 0 0 - - -;
#X obj 326 24 -;
#X floatatom 326 44 5 0 0 0 - - -;
#X floatatom 280 44 5 0 0 0 - - -;
#X obj 280 24 +;
#X obj 287 -15 t a a;
#X obj 287 6 bng 15 250 50 0 empty empty empty 17 7 0 10 -262144 -1
-1;
#X obj 326 -15 t a a;
#X obj 326 6 bng 15 250 50 0 empty empty empty 17 7 0 10 -262144 -1
-1;
#X text 326 -76 deph;
#X floatatom 280 97 5 0 0 0 - - -;
#X obj 376 44 loadbang;
#X obj 283 78 hsl 50 15 20 6000 0 0 empty empty empty -2 -8 0 10 -262144
-1 -1 0 1;
#X msg 332 159 \$1 \, \$2 \$3;
#X obj 280 -150 vsl 20 50 0 2000 0 1 empty empty empty 0 -9 0 10 -262144
-1 -1 0 1;
#X obj 326 -150 vsl 20 50 20 500 0 1 empty empty empty 0 -9 0 10 -262144
-1 -1 400 1;
#X obj 389 -150 vsl 20 50 10 1000 1 1 empty empty empty 0 -9 0 10 -262144
-1 -1 4400 1;
#X floatatom 413 -69 5 0 0 0 - - -;
#X obj 493 395 outlet~;
#X msg 602 38 0.25;
#X obj 133 -205 snapshot~;
#X obj 185 -270 tgl 15 0 empty empty empty 17 7 0 10 -262144 -1 -1
1 1;
#X obj 185 -249 metro 60;
#X obj 133 -270 osc~ 2;
#X obj 135 -175 clip 0 1;
#X obj 135 -144 * 4000;
#X obj 250 -268 loadbang;
#X obj 328 -240 inlet;
#X connect 0 0 1 1;
#X connect 1 0 38 0;
#X connect 2 0 3 0;
#X connect 2 0 39 0;
#X connect 2 0 11 0;
#X connect 2 0 8 0;
#X connect 4 0 1 0;
#X connect 5 0 4 0;
#X connect 6 0 8 1;
#X connect 7 0 0 0;
#X connect 8 0 9 0;
#X connect 9 0 7 0;
#X connect 10 0 6 0;
#X connect 11 0 18 0;
#X connect 12 0 11 1;
#X connect 13 0 18 1;
#X connect 14 0 2 0;
#X connect 15 0 19 0;
#X connect 16 0 20 0;
#X connect 18 0 33 0;
#X connect 19 0 21 0;
#X connect 19 0 24 0;
#X connect 20 0 25 0;
#X connect 20 0 27 0;
#X connect 21 0 22 0;
#X connect 22 0 32 0;
#X connect 23 0 11 1;
#X connect 24 0 23 0;
#X connect 25 0 26 0;
#X connect 25 1 24 1;
#X connect 26 0 24 0;
#X connect 27 0 28 0;
#X connect 27 1 21 1;
#X connect 28 0 21 0;
#X connect 30 0 18 1;
#X connect 31 0 12 0;
#X connect 31 0 13 0;
#X connect 32 0 30 0;
#X connect 33 0 5 0;
#X connect 34 0 19 0;
#X connect 35 0 20 0;
#X connect 36 0 18 2;
#X connect 36 0 37 0;
#X connect 39 0 4 1;
#X connect 40 0 44 0;
#X connect 41 0 42 0;
#X connect 42 0 40 0;
#X connect 43 0 40 0;
#X connect 44 0 45 0;
#X connect 45 0 34 0;
#X connect 46 0 41 0;
#X connect 47 0 45 1;
#X restore 188 341 pd kick;
#X obj 106 93 noise~;
#X obj 106 158 snapshot~;
#X obj 158 93 tgl 15 0 empty empty empty 17 7 0 10 -262144 -1 -1 1
1;
#X obj 106 182 clip 0 1;
#X floatatom 106 203 5 0 0 0 - - -;
#X floatatom 152 299 5 0 0 0 - - -;
#X obj 101 262 moses 0.7;
#X obj 158 114 metro 60;
#X obj 161 36 loadbang;
#X obj 288 193 * 1000;
#X connect 1 0 15 0;
#X connect 2 0 3 0;
#X connect 4 0 5 3;
#X connect 5 0 0 0;
#X connect 6 0 7 0;
#X connect 7 0 9 0;
#X connect 8 0 13 0;
#X connect 9 0 10 0;
#X connect 10 0 12 0;
#X connect 11 0 4 0;
#X connect 12 1 11 0;
#X connect 13 0 7 0;
#X connect 14 0 8 0;
#X connect 15 0 5 0;
