#N canvas 0 22 804 644 10;
#X obj 239 237 + 1;
#N canvas 412 57 813 736 oporator 0;
#X obj 137 325 *~;
#X obj 152 301 line~;
#X obj 28 569 cos~;
#X obj 28 544 +~;
#X obj 152 278 pack 0 50;
#X floatatom 152 230 0 0 300 0 - - -;
#X obj 152 254 / 100;
#X obj 28 139 phasor~;
#X obj 28 599 hip~;
#X obj 137 136 osc~;
#X floatatom 28 68 3 0 15 0 - - -, f 3;
#X obj 28 115 *;
#X text 33 83 carrier;
#X obj 137 115 *;
#X floatatom 137 70 3 0 15 0 - - -, f 3;
#X text 143 84 mod 1;
#X text 181 232 index1;
#X obj 321 327 *~;
#X obj 336 303 line~;
#X obj 336 280 pack 0 50;
#X floatatom 336 232 0 0 300 0 - - -;
#X obj 336 256 / 100;
#X obj 321 136 osc~;
#X obj 321 115 *;
#X floatatom 321 70 3 0 15 0 - - -, f 3;
#X text 327 84 mod 2;
#X text 370 232 index2;
#X obj -100 98 inlet;
#X obj 28 642 outlet~;
#X obj 28 43 inlet;
#X obj 137 45 inlet;
#X obj 321 45 inlet;
#X text -167 98 fundementl;
#X obj -43 95 bng 15 250 50 0 empty empty empty 17 7 0 10 -262144 -1
-1;
#X obj 152 203 inlet;
#X obj 336 203 inlet;
#X obj 321 508 *~;
#X obj 336 357 tgl 15 0 empty empty empty 17 7 0 10 -262144 -1 -1 1
1;
#X obj 137 503 *~;
#X obj 152 352 tgl 15 0 empty empty empty 17 7 0 10 -262144 -1 -1 1
1;
#X floatatom 159 439 5 0 0 0 - - -, f 5;
#X floatatom 196 440 5 0 0 0 - - -, f 5;
#X floatatom 237 441 5 0 0 0 - - -, f 5;
#X floatatom 275 441 5 0 0 0 - - -, f 5;
#N canvas 650 546 450 300 adsr---- 0;
#X obj 115 121 inlet;
#X obj 445 161 inlet;
#X text 111 96 trigger;
#X obj 115 149 sel 0;
#X obj 254 165 t b;
#X obj 176 274 f \$1;
#X obj 176 299 pack 0 \$2;
#X obj 502 161 inlet;
#X obj 448 291 del \$2;
#X obj 468 439 line~;
#X obj 472 314 f \$4;
#X obj 511 389 pack 0 \$3;
#X obj 564 161 inlet;
#X obj 626 161 inlet;
#X obj 699 160 inlet;
#X msg 115 180 stop;
#X obj 622 316 pack 0 \$5;
#X text 445 139 level;
#X obj 511 365 * \$1;
#X obj 468 464 outlet~;
#X text 112 388 and pack with;
#X text 113 408 attack time;
#X text 41 136 if zero;
#X text 42 153 release;
#X text 22 170 and cancel;
#X text 53 187 decay;
#X text 294 282 on attack \, set a;
#X text 288 315 recall sustain value;
#X text 325 388 pack with decay time;
#X text 615 342 on release ramp;
#X text 616 359 back to zero;
#X obj 472 339 * 0.01;
#X text 57 577 Objects such as "f" and "pack" can be given dollar sign
arguments to initialize their contents from adsr's creation arguments.
Inlets are supplied to change them on the fly.;
#X text 23 12 ADSR ENVELOPE;
#X text 498 139 attack;
#X text 565 138 decay;
#X text 619 139 sustain;
#X text 696 139 release;
#X text 212 81 attack;
#X obj 214 102 moses;
#X obj 204 132 t b b;
#X msg 138 300 0;
#X text 30 283 optionally;
#X text 20 301 bash to zero;
#X text 35 256 ATTACK:;
#X text 59 487 When you send this patch a positive trigger it schedules
a line~ to do an attack and decay \, and if zero \, it starts the release
ramp.;
#X text 505 639 Updated for Pd version 0.37;
#X text 265 99 test for negative trigger;
#X text 263 123 if so \, zero;
#X text 264 139 the output;
#X text 288 175 in any case;
#X text 313 365 multiply by peak level;
#X text 290 296 delay for sustain;
#X text 286 338 convert from percent;
#X text 165 350 ... then;
#X text 113 369 recall peak level;
#X text 449 123 peak;
#X text 291 159 ... do this;
#X text 57 539 Negative triggers cause the output to jump to zero and
then attack (instead of attacking from the current location).;
#X text 218 11 Arguments: level \, attack time \, decay time \, sustain
level \, release time. A \, D \, and R are in msec and S is in percent.
This patch is used as an abstraction in various examples.;
#X connect 0 0 3 0;
#X connect 1 0 5 1;
#X connect 1 0 18 1;
#X connect 3 0 15 0;
#X connect 3 0 16 0;
#X connect 3 1 39 0;
#X connect 4 0 5 0;
#X connect 4 0 8 0;
#X connect 5 0 6 0;
#X connect 6 0 9 0;
#X connect 7 0 6 1;
#X connect 7 0 8 1;
#X connect 8 0 10 0;
#X connect 9 0 19 0;
#X connect 10 0 31 0;
#X connect 11 0 9 0;
#X connect 12 0 11 1;
#X connect 13 0 10 1;
#X connect 14 0 16 1;
#X connect 15 0 8 0;
#X connect 16 0 9 0;
#X connect 18 0 11 0;
#X connect 31 0 18 0;
#X connect 39 0 40 0;
#X connect 39 1 4 0;
#X connect 40 0 4 0;
#X connect 40 1 41 0;
#X connect 41 0 9 0;
#X restore 152 466 pd adsr----;
#X obj 182 388 loadbang;
#X msg 158 412 1;
#X msg 188 412 500;
#X msg 230 411 500;
#X msg 269 412 500;
#X floatatom 342 438 5 0 0 0 - - -, f 5;
#X floatatom 379 439 5 0 0 0 - - -, f 5;
#X floatatom 420 440 5 0 0 0 - - -, f 5;
#X floatatom 458 440 5 0 0 0 - - -, f 5;
#N canvas 650 546 450 300 adsr---- 0;
#X obj 115 121 inlet;
#X obj 445 161 inlet;
#X text 111 96 trigger;
#X obj 115 149 sel 0;
#X obj 254 165 t b;
#X obj 176 274 f \$1;
#X obj 176 299 pack 0 \$2;
#X obj 502 161 inlet;
#X obj 448 291 del \$2;
#X obj 468 439 line~;
#X obj 472 314 f \$4;
#X obj 511 389 pack 0 \$3;
#X obj 564 161 inlet;
#X obj 626 161 inlet;
#X obj 699 160 inlet;
#X msg 115 180 stop;
#X obj 622 316 pack 0 \$5;
#X text 445 139 level;
#X obj 511 365 * \$1;
#X obj 468 464 outlet~;
#X text 112 388 and pack with;
#X text 113 408 attack time;
#X text 41 136 if zero;
#X text 42 153 release;
#X text 22 170 and cancel;
#X text 53 187 decay;
#X text 294 282 on attack \, set a;
#X text 288 315 recall sustain value;
#X text 325 388 pack with decay time;
#X text 615 342 on release ramp;
#X text 616 359 back to zero;
#X obj 472 339 * 0.01;
#X text 57 577 Objects such as "f" and "pack" can be given dollar sign
arguments to initialize their contents from adsr's creation arguments.
Inlets are supplied to change them on the fly.;
#X text 23 12 ADSR ENVELOPE;
#X text 498 139 attack;
#X text 565 138 decay;
#X text 619 139 sustain;
#X text 696 139 release;
#X text 212 81 attack;
#X obj 214 102 moses;
#X obj 204 132 t b b;
#X msg 138 300 0;
#X text 30 283 optionally;
#X text 20 301 bash to zero;
#X text 35 256 ATTACK:;
#X text 59 487 When you send this patch a positive trigger it schedules
a line~ to do an attack and decay \, and if zero \, it starts the release
ramp.;
#X text 505 639 Updated for Pd version 0.37;
#X text 265 99 test for negative trigger;
#X text 263 123 if so \, zero;
#X text 264 139 the output;
#X text 288 175 in any case;
#X text 313 365 multiply by peak level;
#X text 290 296 delay for sustain;
#X text 286 338 convert from percent;
#X text 165 350 ... then;
#X text 113 369 recall peak level;
#X text 449 123 peak;
#X text 291 159 ... do this;
#X text 57 539 Negative triggers cause the output to jump to zero and
then attack (instead of attacking from the current location).;
#X text 218 11 Arguments: level \, attack time \, decay time \, sustain
level \, release time. A \, D \, and R are in msec and S is in percent.
This patch is used as an abstraction in various examples.;
#X connect 0 0 3 0;
#X connect 1 0 5 1;
#X connect 1 0 18 1;
#X connect 3 0 15 0;
#X connect 3 0 16 0;
#X connect 3 1 39 0;
#X connect 4 0 5 0;
#X connect 4 0 8 0;
#X connect 5 0 6 0;
#X connect 6 0 9 0;
#X connect 7 0 6 1;
#X connect 7 0 8 1;
#X connect 8 0 10 0;
#X connect 9 0 19 0;
#X connect 10 0 31 0;
#X connect 11 0 9 0;
#X connect 12 0 11 1;
#X connect 13 0 10 1;
#X connect 14 0 16 1;
#X connect 15 0 8 0;
#X connect 16 0 9 0;
#X connect 18 0 11 0;
#X connect 31 0 18 0;
#X connect 39 0 40 0;
#X connect 39 1 4 0;
#X connect 40 0 4 0;
#X connect 40 1 41 0;
#X connect 41 0 9 0;
#X restore 335 465 pd adsr----;
#X obj 365 387 loadbang;
#X msg 341 411 1;
#X msg 371 411 500;
#X msg 413 410 500;
#X msg 452 411 500;
#X obj 481 263 loadbang;
#X obj -82 42 loadbang;
#X connect 0 0 38 0;
#X connect 1 0 0 1;
#X connect 2 0 8 0;
#X connect 3 0 2 0;
#X connect 4 0 1 0;
#X connect 5 0 6 0;
#X connect 6 0 4 0;
#X connect 7 0 3 0;
#X connect 8 0 28 0;
#X connect 9 0 0 0;
#X connect 10 0 11 0;
#X connect 11 0 7 0;
#X connect 13 0 9 0;
#X connect 14 0 13 0;
#X connect 17 0 36 0;
#X connect 18 0 17 1;
#X connect 19 0 18 0;
#X connect 20 0 21 0;
#X connect 21 0 19 0;
#X connect 22 0 17 0;
#X connect 23 0 22 0;
#X connect 24 0 23 0;
#X connect 27 0 11 1;
#X connect 27 0 13 1;
#X connect 27 0 23 1;
#X connect 27 0 33 0;
#X connect 29 0 10 0;
#X connect 30 0 14 0;
#X connect 31 0 24 0;
#X connect 33 0 11 0;
#X connect 33 0 13 0;
#X connect 33 0 23 0;
#X connect 34 0 5 0;
#X connect 35 0 20 0;
#X connect 36 0 3 1;
#X connect 37 0 54 0;
#X connect 38 0 3 1;
#X connect 39 0 44 0;
#X connect 40 0 44 1;
#X connect 41 0 44 2;
#X connect 42 0 44 3;
#X connect 43 0 44 4;
#X connect 44 0 38 1;
#X connect 45 0 46 0;
#X connect 45 0 47 0;
#X connect 45 0 48 0;
#X connect 45 0 49 0;
#X connect 46 0 40 0;
#X connect 47 0 41 0;
#X connect 48 0 42 0;
#X connect 49 0 43 0;
#X connect 50 0 54 1;
#X connect 51 0 54 2;
#X connect 52 0 54 3;
#X connect 53 0 54 4;
#X connect 54 0 36 1;
#X connect 55 0 56 0;
#X connect 55 0 57 0;
#X connect 55 0 58 0;
#X connect 55 0 59 0;
#X connect 56 0 50 0;
#X connect 57 0 51 0;
#X connect 58 0 52 0;
#X connect 59 0 53 0;
#X connect 60 0 39 0;
#X connect 60 0 37 0;
#X connect 61 0 33 0;
#X restore 290 318 pd oporator;
#X obj 311 171 vsl 15 128 0 24 0 0 empty empty empty 0 -9 0 10 -262144
-1 -1 0 1;
#X obj 393 171 vsl 15 128 0 24 0 0 empty empty empty 0 -9 0 10 -262144
-1 -1 0 1;
#X obj 342 171 vsl 15 128 0 24 0 0 empty empty empty 0 -9 0 10 -262144
-1 -1 0 1;
#X obj 413 171 vsl 15 128 0 127 0 0 empty empty empty 0 -9 0 10 -262144
-1 -1 0 1;
#X obj 362 171 vsl 15 128 0 127 0 0 empty empty empty 0 -9 0 10 -262144
-1 -1 0 1;
#X obj 239 263 * 200;
#X obj 290 407 *~ 0.3;
#N canvas 175 160 763 338 color 0;
#X obj 333 13 inlet;
#X obj 252 14 inlet~;
#X obj 252 300 outlet~;
#X text 338 41 ----blue----;
#X obj 333 62 sel 0 1 2 3 4 5 6 7 8 9 10 11 12 13 14 15 16;
#X text 382 31 ----green----;
#X text 436 41 ----yellow----;
#X text 496 31 ----or----;
#X text 534 41 ----red----;
#X msg 332 107 8000;
#X msg 372 107 6000;
#X msg 572 107 200;
#X msg 602 107 160;
#X msg 481 107 500;
#X obj 252 230 bp~ 10000 1;
#X obj 330 270 *~ 0;
#X msg 546 212 1;
#X msg 575 212 0;
#X obj 330 230 lop~ 600;
#X obj 188 270 *~ 0;
#X msg 106 212 1;
#X obj 188 230 hip~ 4000;
#X connect 0 0 4 0;
#X connect 1 0 14 0;
#X connect 1 0 18 0;
#X connect 1 0 21 0;
#X connect 4 0 9 0;
#X connect 4 0 17 0;
#X connect 4 1 9 0;
#X connect 4 1 17 0;
#X connect 4 2 10 0;
#X connect 4 2 17 0;
#X connect 4 3 10 0;
#X connect 4 3 17 0;
#X connect 4 4 13 0;
#X connect 4 4 17 0;
#X connect 4 5 13 0;
#X connect 4 5 17 0;
#X connect 4 6 13 0;
#X connect 4 6 16 0;
#X connect 4 7 10 0;
#X connect 4 7 16 0;
#X connect 4 8 9 0;
#X connect 4 8 16 0;
#X connect 4 8 20 0;
#X connect 4 9 9 0;
#X connect 4 9 17 0;
#X connect 4 9 20 0;
#X connect 4 10 10 0;
#X connect 4 10 17 0;
#X connect 4 11 13 0;
#X connect 4 11 17 0;
#X connect 4 11 20 0;
#X connect 4 12 13 0;
#X connect 4 12 17 0;
#X connect 4 13 11 0;
#X connect 4 13 16 0;
#X connect 4 14 11 0;
#X connect 4 14 16 0;
#X connect 4 15 13 0;
#X connect 4 15 16 0;
#X connect 4 16 12 0;
#X connect 4 16 16 0;
#X connect 4 17 12 0;
#X connect 4 17 16 0;
#X connect 4 17 20 0;
#X connect 9 0 14 1;
#X connect 10 0 14 1;
#X connect 11 0 14 1;
#X connect 11 0 18 1;
#X connect 12 0 14 1;
#X connect 12 0 18 1;
#X connect 13 0 14 1;
#X connect 13 0 18 1;
#X connect 14 0 2 0;
#X connect 15 0 2 0;
#X connect 16 0 15 1;
#X connect 17 0 15 1;
#X connect 18 0 15 0;
#X connect 19 0 2 0;
#X connect 20 0 19 1;
#X connect 21 0 19 0;
#X restore 467 463 pd color;
#X obj 290 347 lop~ 800;
#X obj 290 377 lop~ 800;
#X obj 422 399 bp~ 200 1;
#N canvas 394 79 784 693 delay 0;
#X obj 269 64 vd~ delayleft 1000;
#X obj 269 213 lop~ 4000;
#X obj 59 -31 inlet~;
#X obj 269 358 outlet~;
#X obj 269 -38 pack 0 50;
#X obj 269 -17 line~;
#X obj -27 192 *~ 0.3;
#X obj 33 192 *~ 0.3;
#X obj 269 296 *~ 0.5;
#X floatatom 272 -70 5 0 0 0 - - -, f 5;
#X obj 272 -116 loadbang;
#X msg 271 -93 400;
#X obj 59 254 delwrite~ delayleft 4000;
#X connect 0 0 1 0;
#X connect 1 0 6 0;
#X connect 1 0 8 0;
#X connect 2 0 12 0;
#X connect 4 0 5 0;
#X connect 5 0 0 0;
#X connect 6 0 12 0;
#X connect 8 0 3 0;
#X connect 9 0 4 0;
#X connect 10 0 11 0;
#X connect 11 0 9 0;
#X restore 316 481 pd delay;
#X obj 316 503 hip~ 3000;
#X obj 422 421 *~ 0.1;
#X obj 187 190 loadbang;
#X msg 187 212 6;
#X obj 376 60 inlet;
#X obj 386 70 inlet;
#X obj 396 80 inlet;
#X obj 406 90 inlet;
#X obj 416 100 inlet;
#X obj 323 581 outlet~;
#X connect 0 0 7 0;
#X connect 1 0 10 0;
#X connect 2 0 1 1;
#X connect 3 0 1 4;
#X connect 4 0 1 2;
#X connect 5 0 1 5;
#X connect 6 0 1 3;
#X connect 7 0 1 0;
#X connect 8 0 13 0;
#X connect 9 0 23 0;
#X connect 10 0 11 0;
#X connect 10 0 12 0;
#X connect 11 0 8 0;
#X connect 12 0 15 0;
#X connect 13 0 14 0;
#X connect 14 0 23 0;
#X connect 15 0 9 0;
#X connect 16 0 17 0;
#X connect 17 0 0 0;
#X connect 18 0 2 0;
#X connect 19 0 4 0;
#X connect 20 0 6 0;
#X connect 21 0 3 0;
#X connect 22 0 5 0;
