#N canvas 90 67 1010 168 10;
#X obj 267 29 r \$0-proximity;
#X obj 749 79 s \$0-proximity;
#X floatatom 709 20 5 0 0 0 - - -, f 5;
#X floatatom 709 48 5 0 0 0 - - -, f 5;
#X floatatom 711 77 5 0 0 0 - - -, f 5;
#X obj 749 50 s \$0-colour;
#X obj 71 51 r \$0-colour;
#X obj 26 27 r \$0-scale;
#X obj 749 23 s \$0-scale;
#X obj 312 57 r \$0-pan;
#X obj 26 114 outlet;
#X obj 71 114 outlet;
#X obj 267 114 outlet;
#X obj 312 114 outlet;
#X text 812 109 dynamic floats (0 - 1);
#X floatatom 711 107 5 0 0 0 - - -, f 5;
#X obj 749 109 s \$0-pan;
#X text 101 27 const float (0 - 1);
#X text 377 57 float [-1 \, 1];
#X text 821 23 const float (0 \, 1];
#X text 827 49 const int [0 \, 16];
#X text 844 79 float [0 \, ∞);
#X text 362 29 float [0 \, ∞);
#X text 148 50 const int [0 \, 16];
#X connect 0 0 12 0;
#X connect 2 0 8 0;
#X connect 3 0 5 0;
#X connect 4 0 1 0;
#X connect 6 0 11 0;
#X connect 7 0 10 0;
#X connect 9 0 13 0;
#X connect 15 0 16 0;
