#N canvas 96 154 1010 168 10;
#X text 148 50 static int;
#X text 101 27 static float (0 - 1);
#X text 362 29 dynamic floats (0 - 1);
#X obj 267 29 r \$0-proximity;
#X text 827 49 static int;
#X text 821 23 static float (0 - 1);
#X text 844 79 dynamic floats (0 - 1);
#X obj 749 79 s \$0-proximity;
#X floatatom 709 20 5 0 0 0 - - -;
#X floatatom 709 48 5 0 0 0 - - -;
#X floatatom 711 77 5 0 0 0 - - -;
#X obj 749 50 s \$0-colour;
#X obj 71 51 r \$0-colour;
#X obj 26 27 r \$0-scale;
#X obj 749 23 s \$0-scale;
#X obj 312 57 r \$0-pan;
#X obj 26 114 outlet;
#X obj 71 114 outlet;
#X obj 267 114 outlet;
#X obj 312 114 outlet;
#X text 812 109 dynamic floats (0 - 1);
#X floatatom 711 107 5 0 0 0 - - -;
#X obj 749 109 s \$0-pan;
#X text 377 57 dynamic float (-1 - 1);
#X connect 3 0 18 0;
#X connect 8 0 14 0;
#X connect 9 0 11 0;
#X connect 10 0 7 0;
#X connect 12 0 17 0;
#X connect 13 0 16 0;
#X connect 15 0 19 0;
#X connect 21 0 22 0;
