#N canvas 627 152 358 437 10;
#X obj 54 81 dac~;
#N canvas 457 281 833 588 pan 0;
#X obj 225 193 sin;
#X obj 280 193 cos;
#X obj 210 239 *~;
#X obj 265 239 *~;
#X obj 144 222 inlet~;
#X obj 210 275 outlet~;
#X obj 265 275 outlet~;
#X obj 292 18 loadbang;
#X text 439 45 0 - 1.572;
#X obj 175 94 + 1;
#X floatatom 292 75 5 0 0 0 - - -;
#X floatatom 326 226 5 0 0 0 - - -;
#X floatatom 376 224 10 0 0 0 - - -;
#X text 438 68 ((+ 1) / 2 *) 1.572;
#X obj 175 116 / 2;
#X msg 292 42 1.5708;
#X obj 176 136 * 1.5708;
#X obj 155 43 inlet;
#X connect 0 0 2 1;
#X connect 0 0 11 0;
#X connect 1 0 3 1;
#X connect 1 0 12 0;
#X connect 2 0 5 0;
#X connect 3 0 6 0;
#X connect 4 0 2 0;
#X connect 4 0 3 0;
#X connect 7 0 15 0;
#X connect 9 0 14 0;
#X connect 10 0 0 0;
#X connect 10 0 1 0;
#X connect 14 0 16 0;
#X connect 15 0 10 0;
#X connect 16 0 0 0;
#X connect 16 0 1 0;
#X connect 17 0 9 0;
#X restore 54 -47 pd pan;
#X obj 54 -9 hip~ 5;
#X obj 54 14 clip~ -1 1;
#X obj 126 -9 hip~ 5;
#X obj 126 14 clip~ -1 1;
#X obj 54 36 lop~ 10000;
#X obj 126 36 lop~ 10000;
#X obj 87 -72 r pan;
#X obj 54 -227 inlet~;
#X obj 104 -206 tgl 15 0 empty empty empty 17 7 0 10 -262144 -1 -1
0 1;
#X obj 104 -227 r \$0-on;
#X obj 104 -123 vline~;
#X msg 104 -145 1 1000;
#X msg 151 -145 0 1000;
#X obj 54 -106 *~;
#X obj 160 -227 loadbang;
#X obj 104 -187 select 1 0;
#X msg 209 -109 0.5;
#X connect 1 0 2 0;
#X connect 1 1 4 0;
#X connect 2 0 3 0;
#X connect 3 0 6 0;
#X connect 4 0 5 0;
#X connect 5 0 7 0;
#X connect 6 0 0 0;
#X connect 7 0 0 1;
#X connect 8 0 1 1;
#X connect 9 0 15 0;
#X connect 10 0 17 0;
#X connect 11 0 10 0;
#X connect 12 0 15 1;
#X connect 13 0 12 0;
#X connect 14 0 12 0;
#X connect 15 0 1 0;
#X connect 16 0 10 0;
#X connect 17 0 13 0;
#X connect 17 1 14 0;
#X connect 18 0 12 0;
