#N canvas 729 106 339 578 10;
#X obj 50 463 dac~;
#N canvas 369 318 833 588 pan 0;
#X obj 326 308 cos;
#X obj 256 354 *~;
#X obj 311 354 *~;
#X obj 162 295 inlet~;
#X obj 256 390 outlet~;
#X obj 311 390 outlet~;
#X obj 138 150 + 1;
#X floatatom 338 190 5 0 0 0 - - -, f 5;
#X obj 133 127 inlet;
#X obj 284 44 loadbang;
#X obj 271 308 sin;
#X msg 298 67 1;
#X obj 298 89 atan;
#X obj 138 172 / 2;
#X obj 189 233 *;
#X obj 260 143 * 2;
#X obj 260 165 f;
#X text 211 155 pi / 2;
#X text 334 138 set to centre on load;
#X text 211 155 pi / 2;
#X text 291 24 pi / 4;
#X text 127 106 [-1 \, 1];
#X connect 0 0 2 1;
#X connect 1 0 4 0;
#X connect 2 0 5 0;
#X connect 3 0 1 0;
#X connect 3 0 2 0;
#X connect 6 0 13 0;
#X connect 7 0 0 0;
#X connect 7 0 10 0;
#X connect 8 0 6 0;
#X connect 9 0 11 0;
#X connect 10 0 1 1;
#X connect 11 0 12 0;
#X connect 12 0 7 0;
#X connect 12 0 15 0;
#X connect 13 0 14 0;
#X connect 14 0 0 0;
#X connect 14 0 10 0;
#X connect 15 0 16 0;
#X connect 16 0 14 1;
#X restore 50 335 pd pan;
#X obj 27 373 hip~ 5;
#X obj 27 396 clip~ -1 1;
#X obj 99 373 hip~ 5;
#X obj 99 396 clip~ -1 1;
#X obj 27 418 lop~ 10000;
#X obj 99 418 lop~ 10000;
#X obj 42 54 inlet~;
#X obj 136 122 tgl 15 0 empty empty empty 17 7 0 10 -262144 -1 -1 0
1;
#X obj 126 250 vline~;
#X obj 100 289 *~;
#X obj 145 75 loadbang;
#X obj 111 183 select 1 0;
#X msg 103 216 1 100;
#X msg 150 216 0 100;
#X obj 21 256 inlet;
#X obj 105 75 inlet;
#X connect 1 0 2 0;
#X connect 1 1 4 0;
#X connect 2 0 3 0;
#X connect 3 0 6 0;
#X connect 4 0 5 0;
#X connect 5 0 7 0;
#X connect 6 0 0 0;
#X connect 7 0 0 1;
#X connect 8 0 11 0;
#X connect 9 0 13 0;
#X connect 10 0 11 1;
#X connect 11 0 1 1;
#X connect 12 0 9 0;
#X connect 13 0 14 0;
#X connect 13 1 15 0;
#X connect 14 0 10 0;
#X connect 15 0 10 0;
#X connect 16 0 1 0;
#X connect 17 0 9 0;
#X coords 0 -1 1 1 85 60 1 100 100;
