#N canvas 0 22 450 300 10;
#X floatatom 124 137 5 0 0 0 - - -, f 5;
#X obj 116 43 loadbang;
#X obj 251 96 inlet;
#X msg 250 157;
#X obj 265 225 outlet;
#X connect 0 0 4 0;
#X connect 1 0 3 0;
#X connect 2 0 3 0;
#X connect 3 0 4 0;
#X coords 0 -1 1 1 85 60 1 100 100;
