#N canvas 204 77 832 516 10;
#X obj 138 282 p_output;
#X obj 306 196 r \$0-proximity;
#X obj 505 35 r \$0-colour;
#X obj 385 87 r \$0-scale;
#X obj 93 237 r \$0-pan;
#X obj 47 237 r \$0-on;
#X obj 205 216 volume;
#X obj 186 21 loadbang;
#X obj 152 135 p_fm 1 2 3 4;
#X floatatom 338 301 5 0 0 0 - - -, f 5;
#X obj 373 383 s \$0-proximity;
#X floatatom 405 324 5 0 0 0 - - -, f 5;
#X floatatom 494 271 5 0 0 0 - - -, f 5;
#X floatatom 600 282 5 0 0 0 - - -, f 5;
#X obj 462 330 s \$0-scale;
#X obj 568 341 s \$0-colour;
#X msg 66 84 1.377;
#X msg 126 84 4.779;
#X msg 186 84 43;
#X obj 265 159 * 127;
#X msg 246 84 5.234;
#X msg 306 84 34.7;
#X obj 424 219;
#X connect 1 0 6 1;
#X connect 1 0 19 0;
#X connect 4 0 0 2;
#X connect 5 0 0 0;
#X connect 6 0 0 1;
#X connect 7 0 16 0;
#X connect 7 0 17 0;
#X connect 7 0 18 0;
#X connect 7 0 20 0;
#X connect 7 0 21 0;
#X connect 8 0 6 0;
#X connect 11 0 10 0;
#X connect 12 0 14 0;
#X connect 13 0 15 0;
#X connect 16 0 8 0;
#X connect 17 0 8 1;
#X connect 19 0 8 2;
#X connect 20 0 8 3;
#X connect 21 0 8 4;
