#N canvas 15 23 450 300 10;
#X obj 165 114 inlet;
#X obj 232 83 inlet~;
#X obj 230 201 outlet~;
#X text 84 33 TODO: dB over distance calculation;
#X obj 281 147 *~;
#X connect 0 0 4 0;
#X connect 1 0 4 1;
#X connect 4 0 2 0;
