#N canvas 0 23 1234 730 10;
#X obj 819 657 dac~;
#X obj 609 483 osc~ 220;
#X obj 541 406 r y-axis;
#N canvas 435 61 833 588 pan 0;
#X obj 225 193 sin;
#X obj 280 193 cos;
#X obj 210 239 *~;
#X obj 265 239 *~;
#X obj 144 222 inlet~;
#X obj 210 275 outlet~;
#X obj 265 275 outlet~;
#X obj 292 18 loadbang;
#X obj 155 43 r x-axis;
#X text 439 45 0 - 1.572;
#X obj 175 94 + 1;
#X floatatom 292 75 5 0 0 0 - - -, f 5;
#X floatatom 326 226 5 0 0 0 - - -, f 5;
#X floatatom 376 224 10 0 0 0 - - -, f 10;
#X text 438 68 ((+ 1) / 2 *) 1.572;
#X obj 175 116 / 2;
#X msg 292 42 1.5708;
#X obj 176 136 * 1.5708;
#X connect 0 0 2 1;
#X connect 0 0 12 0;
#X connect 1 0 3 1;
#X connect 1 0 13 0;
#X connect 2 0 5 0;
#X connect 3 0 6 0;
#X connect 4 0 2 0;
#X connect 4 0 3 0;
#X connect 7 0 16 0;
#X connect 8 0 10 0;
#X connect 10 0 15 0;
#X connect 11 0 0 0;
#X connect 11 0 1 0;
#X connect 15 0 17 0;
#X connect 16 0 11 0;
#X connect 17 0 0 0;
#X connect 17 0 1 0;
#X restore 820 550 pd pan;
#X obj 547 441 * 400;
#X obj 508 425 + 1;
#X obj 818 579 hip~ 5;
#X obj 818 602 clip~ -1 1;
#X obj 818 624 lop~ 8000;
#X obj 890 578 hip~ 5;
#X obj 890 601 clip~ -1 1;
#X obj 890 623 lop~ 8000;
#X connect 1 0 3 0;
#X connect 2 0 5 0;
#X connect 3 0 6 0;
#X connect 3 1 9 0;
#X connect 4 0 1 0;
#X connect 5 0 4 0;
#X connect 6 0 7 0;
#X connect 7 0 8 0;
#X connect 8 0 0 0;
#X connect 9 0 10 0;
#X connect 10 0 11 0;
#X connect 11 0 0 1;
